<svg
          xmlns="http://www.w3.org/2000/svg"
          width="21"
          height="20"
          viewBox="0 0 21 20"
          fill="none"
        >
    <path
            d="M11.1539 14.6508C11.2413 14.7379 11.3107 14.8413 11.358 14.9553C11.4053 15.0693 11.4296 15.1914 11.4296 15.3148C11.4296 15.4382 11.4053 15.5604 11.358 15.6743C11.3107 15.7883 11.2413 15.8918 11.1539 15.9789L10.6898 16.4429C9.81049 17.3223 8.61782 17.8163 7.37422 17.8163C6.13062 17.8163 4.93795 17.3223 4.0586 16.4429C3.17924 15.5636 2.68522 14.3709 2.68522 13.1273C2.68522 11.8837 3.17924 10.691 4.0586 9.81169L5.94297 7.9281C6.78788 7.0811 7.92467 6.58921 9.12049 6.55319C10.3163 6.51717 11.4806 6.93974 12.375 7.73435C12.4673 7.81642 12.5426 7.91588 12.5965 8.02705C12.6504 8.13821 12.6819 8.2589 12.6891 8.38223C12.6964 8.50556 12.6793 8.62911 12.6388 8.74582C12.5983 8.86254 12.5352 8.97014 12.4531 9.06247C12.3711 9.15481 12.2716 9.23007 12.1604 9.28397C12.0493 9.33787 11.9286 9.36934 11.8052 9.3766C11.6819 9.38385 11.5584 9.36675 11.4417 9.32625C11.3249 9.28576 11.2173 9.22267 11.125 9.1406C10.5887 8.66429 9.89065 8.4109 9.17369 8.43224C8.45672 8.45359 7.77499 8.74807 7.26797 9.25544L5.38516 11.1367C4.85763 11.6642 4.56126 12.3797 4.56126 13.1258C4.56126 13.8718 4.85763 14.5873 5.38516 15.1148C5.91269 15.6423 6.62818 15.9387 7.37422 15.9387C8.12026 15.9387 8.83575 15.6423 9.36328 15.1148L9.82735 14.6508C9.91441 14.5636 10.0178 14.4944 10.1316 14.4473C10.2454 14.4001 10.3674 14.3758 10.4906 14.3758C10.6138 14.3758 10.7358 14.4001 10.8496 14.4473C10.9634 14.4944 11.0668 14.5636 11.1539 14.6508ZM16.9414 3.557C16.0613 2.679 14.8689 2.18591 13.6258 2.18591C12.3826 2.18591 11.1902 2.679 10.3102 3.557L9.8461 4.02107C9.66998 4.19719 9.57103 4.43606 9.57103 4.68513C9.57103 4.9342 9.66998 5.17307 9.8461 5.34919C10.0222 5.52531 10.2611 5.62426 10.5102 5.62426C10.7592 5.62426 10.9981 5.52531 11.1742 5.34919L11.6383 4.88513C12.1658 4.3576 12.8813 4.06123 13.6273 4.06123C14.3734 4.06123 15.0889 4.3576 15.6164 4.88513C16.1439 5.41266 16.4403 6.12815 16.4403 6.87419C16.4403 7.62023 16.1439 8.33572 15.6164 8.86325L13.7328 10.7476C13.2253 11.2548 12.5432 11.5488 11.8261 11.5696C11.1089 11.5904 10.411 11.3363 9.875 10.8593C9.78267 10.7773 9.67507 10.7142 9.55835 10.6737C9.44164 10.6332 9.31809 10.6161 9.19476 10.6233C9.07143 10.6306 8.95074 10.6621 8.83958 10.716C8.72841 10.7699 8.62895 10.8451 8.54688 10.9375C8.4648 11.0298 8.40172 11.1374 8.36122 11.2541C8.32073 11.3708 8.30362 11.4944 8.31088 11.6177C8.31813 11.741 8.3496 11.8617 8.4035 11.9729C8.4574 12.0841 8.53267 12.1835 8.625 12.2656C9.51874 13.06 10.6823 13.4829 11.8775 13.4476C13.0728 13.4123 14.2094 12.9215 15.0547 12.0758L16.9391 10.1922C17.8181 9.3123 18.3121 8.11957 18.3125 6.87585C18.3129 5.63212 17.8198 4.43905 16.9414 3.55857V3.557Z"
            fill="#633CFF"
          />
</svg>